<svg width="307" height="105" viewBox="0 0 307 105" fill="none" xmlns="http://www.w3.org/2000/svg">
<g clip-path="url(#clip0_3430_47307)">
<path d="M0 0H12.4173V94.2658H34.8949V104.514H0V0Z" fill="black"/>
<path d="M52.9487 0H87.707V10.3335H65.3661V47.2097H86.5285V57.4579H65.3661V94.2829H87.707V104.531H52.9487V0Z" fill="black"/>
<path d="M107.315 0H118.827L143.542 73.9915V0H154.918V104.633H143.406L118.691 30.5053V104.633H107.315V0Z" fill="black"/>
<path d="M172.835 0H185.508L197.277 91.5159V91.6525L209.045 0H221.752L206.039 104.633H188.514L172.835 0Z" fill="black"/>
<path d="M239.653 0H252.07V104.633H239.653V0Z" fill="black"/>
<path d="M272.242 0H307V10.3335H284.659V47.2097H305.821V57.4579H284.659V94.2829H307V104.531H272.242V0Z" fill="black"/>
</g>
<defs>
<clipPath id="clip0_3430_47307">
<rect width="307" height="104.616" fill="white"/>
</clipPath>
</defs>
</svg>
